<?xml version="1.0" standalone="no"?>
<!DOCTYPE svg PUBLIC "-//W3C//DTD SVG 1.1//EN" "http://www.w3.org/Graphics/SVG/1.1/DTD/svg11.dtd" >
<svg xmlns="http://www.w3.org/2000/svg">
<metadata></metadata>
<defs>
<font id="canaldemiromainregular" horiz-adv-x="0" >
<font-face units-per-em="2048" ascent="1638" descent="-410" />
<missing-glyph horiz-adv-x="575" />
<glyph horiz-adv-x="2048" />
<glyph horiz-adv-x="2048" />
<glyph horiz-adv-x="682" />
<glyph unicode="&#xd;" />
<glyph unicode=" "  horiz-adv-x="575" />
<glyph unicode="&#x09;" horiz-adv-x="575" />
<glyph unicode="&#xa0;" horiz-adv-x="575" />
<glyph unicode="!" horiz-adv-x="671" d="M156 152q0 74 52.5 127t127.5 53t128.5 -52.5t53.5 -127.5t-53.5 -129t-128.5 -54t-127.5 54t-52.5 129zM193 477v1059h286v-1059h-286z" />
<glyph unicode="&#x22;" horiz-adv-x="933" d="M125 1536h258l-25 -621h-178zM551 1536h258l-25 -621h-176z" />
<glyph unicode="#" horiz-adv-x="1335" d="M59 451v215h248l29 235h-221v215h247l56 443l215 -31l-49 -412h241l56 443l215 -31l-54 -412h218v-215h-240l-31 -235h215v-217h-241l-58 -472l-217 29l55 443h-241l-62 -472l-217 29l53 445h-217zM526 666h244l27 235h-240z" />
<glyph unicode="$" horiz-adv-x="1304" d="M131 272l170 179q58 -73 95 -107t85 -59q73 -37 158 -37q103 0 169 57.5t66 149.5q0 69 -46 113.5t-169 97.5l-86 36q-141 61 -204 115q-129 110 -129 289q0 194 139 321q35 33 70.5 54t105.5 49v94h279v-96q86 -22 131 -47q70 -38 157 -123l-151 -193q-42 44 -68.5 64 t-60.5 35q-60 26 -115 26q-84 0 -140.5 -47.5t-56.5 -116.5q0 -60 37 -90q33 -33 109 -67q13 -5 48 -20.5t56 -24.5q116 -51 177 -87t110 -83q107 -101 107 -273q0 -216 -150 -354q-37 -34 -75.5 -55.5t-114.5 -51.5v-110h-279v90q-89 19 -135 35.5t-96 48.5 q-52 32 -91.5 70.5t-101.5 117.5z" />
<glyph unicode="%" horiz-adv-x="1720" d="M4 1190q0 184 119 302t305 118q192 0 310 -116t118 -304q0 -184 -119 -301t-307 -117t-307 117t-119 301zM225 1188q0 -98 59 -164t148 -66t148 66t59 164t-59 163.5t-148 65.5t-148 -64.5t-59 -164.5zM311 49l901 1555l211 -117l-897 -1557zM874 340q0 183 117.5 299.5 t302.5 116.5q191 0 309.5 -115.5t118.5 -302.5q0 -183 -119 -299.5t-305 -116.5q-189 0 -306.5 116t-117.5 302zM1092 340q0 -100 58.5 -164.5t147.5 -64.5t146 64.5t57 164.5q0 99 -57 164t-146 65t-147.5 -65.5t-58.5 -163.5z" />
<glyph unicode="&#x26;" horiz-adv-x="1603" d="M92 406q0 153 105 278q27 34 51 53t84 56q82 49 84 51q20 8 35 18q1 1 3.5 2.5t4.5 3.5q-60 66 -87 105.5t-46 87.5q-25 61 -25 127q0 167 117.5 275t300.5 108q181 0 300.5 -105t119.5 -264q0 -116 -80 -219q-35 -42 -76 -74t-125 -84l252 -290l172 167l31 29l176 -176 l-37 -37l-43 -43l-63 -57l-68 -66l309 -352h-370l-152 174q-97 -77 -156 -112t-133 -62q-100 -35 -203 -35q-209 0 -345 125t-136 316zM393 442q0 -88 68 -150.5t162 -62.5q69 0 139 37q49 24 139 94l-291 334q-82 -54 -115 -81.5t-63 -63.5q-39 -45 -39 -107zM584 1206 q0 -44 20 -80q25 -42 111 -143q59 39 86 62t51 53q39 45 39 106q0 67 -44.5 109.5t-113.5 42.5q-66 0 -107.5 -42t-41.5 -108z" />
<glyph unicode="'" horiz-adv-x="540" d="M125 1536h291l-45 -633h-201z" />
<glyph unicode="(" horiz-adv-x="598" d="M102 768q0 339 78 659q28 115 57 193t93 211l215 -121q-54 -125 -78.5 -198.5t-48.5 -180.5q-62 -275 -62 -571q0 -311 70 -621q24 -98 46.5 -162.5t72.5 -175.5l-215 -123q-25 49 -39 80q-45 89 -74 187q-53 172 -84 395t-31 428z" />
<glyph unicode=")" horiz-adv-x="602" d="M55 -199q55 131 80.5 208.5t48.5 185.5q58 262 58 557q0 305 -66 604q-23 99 -46.5 166.5t-74.5 187.5l217 121q7 -13 16 -31t15 -29.5t10 -19.5q44 -89 74 -192q52 -176 82.5 -398t30.5 -420q0 -331 -74 -641q-30 -121 -59.5 -203t-94.5 -219z" />
<glyph unicode="*" horiz-adv-x="2537" d="M539 1298l198 197l531 -528l528 528l197 -197l-525 -526l529 -530l-201 -203l-528 532l-531 -532l-196 199l528 530z" />
<glyph unicode="+" horiz-adv-x="2314" d="M379 711v254q0 20 5 24t26 4h569q35 0 35 31v518q0 27 28 27h242q17 0 23 -6t6 -25v-520q0 -25 22 -25h574q26 0 26 -22v-256q0 -14 -8.5 -22.5t-21.5 -8.5h-566q-17 0 -21.5 -6t-4.5 -25v-616q0 -37 -31 -37h-240q-28 0 -28 27v626q0 17 -7 24t-24 7h-573q-31 0 -31 27z " />
<glyph unicode="," horiz-adv-x="495" d="M102 301h291l-45 -633h-201z" />
<glyph unicode="-" horiz-adv-x="460" d="M0 367v208h461v-208h-461z" />
<glyph unicode="." horiz-adv-x="583" d="M111 147q0 76 53.5 129.5t128.5 53.5q74 0 127 -52.5t53 -127.5q0 -74 -53.5 -127.5t-126.5 -53.5q-74 0 -128 53t-54 125z" />
<glyph unicode="/" horiz-adv-x="1226" d="M88 -223l836 1999h282l-837 -1999h-281z" />
<glyph unicode="0" horiz-adv-x="1439" d="M125 768q0 233 75 417t209.5 287t305.5 103q268 0 434 -224.5t166 -586.5q0 -233 -75.5 -416t-211 -285t-307.5 -102q-130 0 -241 59.5t-189 165t-122 255.5t-44 327zM426 768q0 -238 82.5 -390.5t212.5 -152.5q129 0 212 152.5t83 390.5q0 235 -83 388t-210 153 q-86 0 -154 -68.5t-105.5 -192t-37.5 -280.5z" />
<glyph unicode="1" horiz-adv-x="770" d="M125 1276v260h520v-1536h-299v1276h-221z" />
<glyph unicode="2" horiz-adv-x="1366" d="M125 0l453 514q210 237 281 350.5t71 212.5q0 98 -68 165t-168 67q-204 0 -225 -252h-319q11 91 22 137t35 96q66 137 191 211t292 74q232 0 385.5 -141t153.5 -353q0 -129 -65 -253.5t-214 -282.5l-266 -285h557v-260h-1116z" />
<glyph unicode="3" horiz-adv-x="1347" d="M125 442h299q12 -65 29 -100q29 -54 89 -85.5t132 -31.5q109 0 179.5 68t70.5 174q0 100 -66.5 170t-161.5 70h-65v215h61q85 0 138 56t53 146q0 94 -57.5 151.5t-149.5 57.5q-182 0 -203 -198h-285q15 82 28.5 124t37.5 84q62 110 174 171t254 61q220 0 352.5 -118 t132.5 -314q0 -144 -69 -228q-28 -35 -109 -94q82 -40 127 -82q107 -107 107 -288q0 -220 -150 -355t-393 -135q-248 0 -406 152q-67 64 -110 155q-29 67 -39 174z" />
<glyph unicode="4" horiz-adv-x="1460" d="M125 270v136l760 1157h270v-1051h180v-242h-180v-270h-281v270h-749zM479 512h395v608z" />
<glyph unicode="5" horiz-adv-x="1341" d="M125 162l100 260q62 -68 101.5 -99.5t93.5 -56.5q87 -41 180 -41q135 0 226.5 85t91.5 210q0 129 -102 219t-251 90q-68 0 -139 -22q-62 -19 -154 -78h-16l182 807h711v-260h-508l-59 -240l28 4q31 4 86 4q146 0 265.5 -69.5t187.5 -192t68 -272.5q0 -244 -168.5 -396.5 t-438.5 -152.5q-147 0 -266 49q-61 24 -104 54.5t-115 97.5z" />
<glyph unicode="6" horiz-adv-x="1415" d="M125 485q0 231 194 488l467 624l234 -131l-348 -450q184 -6 281 -37t180 -111q157 -148 157 -374q0 -234 -163.5 -383.5t-419.5 -149.5q-255 0 -418.5 147t-163.5 377zM426 483q0 -120 81.5 -203t201.5 -83q119 0 200.5 83.5t81.5 204.5q0 120 -81.5 203.5t-198.5 83.5 q-120 0 -202.5 -84.5t-82.5 -204.5z" />
<glyph unicode="7" horiz-adv-x="1433" d="M125 1276v260h1184l-930 -1579l-244 143l703 1176h-713z" />
<glyph unicode="8" horiz-adv-x="1316" d="M125 424q0 163 106 272q32 32 67 54t103 53q-56 31 -83.5 51t-51.5 49q-88 98 -88 236q0 190 137.5 313t348.5 123q212 0 346.5 -122.5t134.5 -313.5q0 -139 -84 -232q-42 -47 -146 -104q67 -30 100.5 -50.5t63.5 -50.5q111 -111 111 -276q1 -204 -146 -334.5 t-378 -130.5q-235 0 -388 131t-153 332zM426 438q0 -100 68 -170.5t165 -70.5t165.5 71t68.5 172q0 98 -68.5 168t-165.5 70q-98 0 -165.5 -69.5t-67.5 -170.5zM446 1139q0 -87 64 -150t152 -63q89 0 149.5 61.5t60.5 151.5q0 89 -61 153t-147 64q-90 0 -154 -63.5 t-64 -153.5z" />
<glyph unicode="9" horiz-adv-x="1415" d="M125 1042q0 154 74.5 275.5t208 189.5t303.5 68q253 0 416 -147.5t163 -376.5q0 -232 -192 -490l-469 -622l-234 131l350 450q-184 6 -280.5 37t-181.5 111q-76 73 -117 169.5t-41 204.5zM426 1051q0 -120 81 -203.5t198 -83.5q120 0 203 84t83 205q0 120 -81.5 202 t-200.5 82q-120 0 -201.5 -82.5t-81.5 -203.5z" />
<glyph unicode=":" horiz-adv-x="729" d="M184 147q0 76 53 129.5t128 53.5t127.5 -52.5t52.5 -127.5q0 -74 -52.5 -127.5t-127.5 -53.5q-73 0 -127 53t-54 125zM184 850q0 76 53 129t128 53t127.5 -52.5t52.5 -127.5t-52.5 -127.5t-127.5 -52.5q-74 0 -127.5 52.5t-53.5 125.5z" />
<glyph unicode=";" horiz-adv-x="731" d="M184 850q0 74 53 126t128 52q76 0 129 -52.5t53 -127.5t-52.5 -127.5t-127.5 -52.5q-77 0 -130 53t-53 129zM221 301h291l-45 -633h-203z" />
<glyph unicode="&#x3c;" horiz-adv-x="1605" d="M100 770l1405 -819v1638zM604 770q178 103 633 369v-740q-459 268 -633 371z" />
<glyph unicode="=" horiz-adv-x="2201" d="M496 438v305h1210v-305h-1210zM496 918v309h1210v-309h-1210z" />
<glyph unicode="&#x3e;" horiz-adv-x="1650" d="M145 -51l1405 819l-1405 819v-1638zM414 397v740q455 -266 633 -369q-174 -103 -633 -371z" />
<glyph unicode="?" horiz-adv-x="1101" d="M76 1155q0 171 138 291.5t333 120.5t329 -125t134 -307q0 -158 -100 -270t-281 -156v-232h-283v441q59 -9 80 -9q127 0 208 65t81 167q0 75 -50.5 126.5t-125.5 51.5q-69 0 -116.5 -48.5t-47.5 -117.5v-27h-297q0 5 -1 15t-1 14zM311 147q0 77 53.5 130t129.5 53 q74 0 126 -52.5t52 -127.5t-52.5 -128t-127.5 -53q-73 0 -127 53t-54 125z" />
<glyph unicode="@" horiz-adv-x="1761" d="M84 582q0 224 109 408t299.5 289t422.5 105q214 0 388.5 -90.5t274 -250t99.5 -355.5q0 -150 -55 -280.5t-149.5 -207.5t-202.5 -77q-60 0 -107.5 31.5t-70.5 85.5q-112 -121 -263 -121q-164 0 -272 123t-108 309q0 195 119.5 324t299.5 129q78 0 147 -27t103 -70l10 78 h193l-61 -524q-9 -83 -9 -107q0 -59 39 -59q27 0 53 16q71 43 116.5 146.5t45.5 222.5q0 235 -166 387t-424 152q-131 0 -248.5 -49t-201.5 -133.5t-133 -202.5t-49 -250q0 -173 81 -318.5t224 -228.5q143 -82 352 -82q140 0 233 23t232 92l16 6l23 12l65 -168l-18 -10 l-12 -4q-132 -67 -261.5 -97t-279.5 -30q-266 0 -457 108q-184 104 -290.5 291t-106.5 404zM666 543q0 -99 49 -162.5t125 -63.5q100 0 176 85.5t76 197.5v16q-8 82 -66 134.5t-143 52.5q-95 0 -156 -73t-61 -187z" />
<glyph unicode="A" horiz-adv-x="1568" d="M16 0l643 1528l265 -2l628 -1526h-321l-131 324h-627l-139 -324h-318zM567 567h441l-217 551z" />
<glyph unicode="B" horiz-adv-x="1290" d="M162 0v1536h379q263 0 377 -92q63 -51 100 -136t37 -180q0 -129 -58 -217q-32 -45 -108 -90q79 -19 119.5 -38.5t78.5 -57.5q52 -52 81.5 -129t29.5 -162q0 -201 -138.5 -317.5t-379.5 -116.5h-518zM461 244h129q152 0 225.5 52t73.5 159q0 54 -23.5 99t-64.5 71 t-87 34.5t-141 8.5h-112v-424zM461 895h86q231 0 231 201q0 97 -57.5 147.5t-169.5 50.5h-90v-399z" />
<glyph unicode="C" horiz-adv-x="1374" d="M92 760q0 166 64 316.5t172.5 258.5t259 172t317.5 64q154 0 322 -70l24 -10q18 -8 23.5 -15t5.5 -24v-272v-25q0 -14 -12 -14q-7 0 -17 10q-61 63 -148.5 97t-187.5 34q-222 0 -371 -149t-149 -371q0 -224 152.5 -365t394.5 -141q203 0 311 111q12 12 17 12q8 0 12 -17 v-24v-260q0 -13 -4 -21q-16 -29 -123 -59q-109 -33 -258 -33q-220 0 -405 106t-292.5 289t-107.5 400z" />
<glyph unicode="D" horiz-adv-x="1515" d="M162 0v1536h438q237 0 425 -97.5t293 -271t105 -391.5q0 -175 -72 -332.5t-204 -265.5q-108 -92 -241.5 -135t-307.5 -43h-436zM461 260h80q145 0 241.5 29t167.5 94q77 69 121.5 172t44.5 213q0 109 -44 211.5t-122 171.5q-72 66 -167.5 95.5t-241.5 29.5h-80v-1016z " />
<glyph unicode="E" horiz-adv-x="1103" d="M162 0v1536h850v-260h-551v-340h530v-260h-530v-416h551v-260h-850z" />
<glyph unicode="F" horiz-adv-x="1052" d="M162 0v1536h813v-260h-514v-340h481v-260h-481v-676h-299z" />
<glyph unicode="G" horiz-adv-x="1736" d="M92 762q0 173 61.5 323t168.5 257t258.5 168t326.5 61q281 0 484 -162q49 -40 84.5 -80.5t89.5 -120.5l-262 -141q-57 85 -111 131q-122 96 -289 96q-143 0 -258 -69t-180.5 -191t-65.5 -272q0 -227 142.5 -376.5t359.5 -149.5q172 0 289 100q50 47 76 100q23 42 39 127 h-361v258h701v-47q0 -372 -202 -590.5t-544 -218.5q-232 0 -416 102t-287.5 284t-103.5 411z" />
<glyph unicode="H" horiz-adv-x="1570" d="M162 0v1536h299v-592h649v592h299v-1536h-299v684h-649v-684h-299z" />
<glyph unicode="I" horiz-adv-x="622" d="M162 0v1536h299v-1536h-299z" />
<glyph unicode="J" horiz-adv-x="946" d="M0 109l182 217q57 -84 148 -84q71 0 108 47q25 28 35 78q12 54 12 180v989h299v-1036q0 -126 -18 -209t-61 -152q-51 -81 -144.5 -128.5t-202.5 -47.5q-48 0 -106 12q-79 17 -133 46t-119 88z" />
<glyph unicode="K" horiz-adv-x="1452" d="M162 0v1536h299v-649l565 649h377l-649 -709l684 -827h-394l-546 690l-37 -37v-653h-299z" />
<glyph unicode="L" horiz-adv-x="976" d="M162 0v1536h299v-1276h473v-260h-772z" />
<glyph unicode="M" horiz-adv-x="1992" d="M92 0l287 1565h203l419 -1006l437 1006h207l256 -1565h-304l-135 946l-424 -966h-82l-407 966l-156 -946h-301z" />
<glyph unicode="N" horiz-adv-x="1765" d="M162 0v1536h235l908 -1034v1034h299v-1536h-234l-909 1038v-1038h-299z" />
<glyph unicode="O" horiz-adv-x="1826" d="M92 752q0 171 63 323t171.5 260.5t260 172t322.5 63.5q229 0 418.5 -105.5t298.5 -290t109 -407.5q0 -166 -64 -315t-174 -256t-262.5 -169.5t-323.5 -62.5q-168 0 -319.5 62t-261 167t-174 251t-64.5 307zM401 774q0 -147 68 -270.5t186 -194.5t258 -71q139 0 257 71 t186.5 193t68.5 266q0 145 -68.5 267t-187 192.5t-258.5 70.5q-137 0 -254.5 -70.5t-186.5 -191.5t-69 -262z" />
<glyph unicode="P" horiz-adv-x="1222" d="M162 0v1536h448q152 0 242 -26t164 -91q75 -67 115 -163t40 -207q0 -100 -32 -189.5t-92 -152.5q-126 -138 -392 -138h-194v-569h-299zM461 829h123q278 0 278 222q0 55 -21 102.5t-57 73.5q-66 49 -219 49h-104v-447z" />
<glyph unicode="Q" horiz-adv-x="1832" d="M92 768q0 223 109 407.5t298.5 290t418.5 105.5t418 -106.5t297 -292.5t108 -412q0 -147 -45 -266q-26 -73 -60 -128.5t-110 -150.5l121 -121l-174 -153l-130 141q-64 -39 -101 -56t-87 -30q-109 -31 -229 -31q-175 0 -330 61.5t-265.5 167.5t-174.5 255.5t-64 318.5z M399 768q0 -230 146.5 -379t372.5 -149q62 0 118 16q44 13 92 45l-139 137l174 158l150 -152q62 71 88 136q31 82 31 182q0 224 -149.5 378t-367.5 154q-220 0 -368 -151t-148 -375z" />
<glyph unicode="R" horiz-adv-x="1290" d="M162 0v1536h444q260 0 393 -109q71 -59 111.5 -151t40.5 -195q0 -76 -23.5 -152.5t-62.5 -129.5q-46 -60 -109 -96.5t-155 -55.5l483 -647h-371l-413 618h-39v-618h-299zM461 829h86q144 0 219.5 60t75.5 174t-74 172.5t-217 58.5h-90v-465z" />
<glyph unicode="S" horiz-adv-x="1247" d="M92 256l195 186q51 -99 134 -151.5t187 -52.5t171 60.5t67 154.5q0 64 -33 106q-29 39 -75 63.5t-189 77.5q-175 63 -258 134q-121 102 -121 280q0 193 137 321t344 128q254 0 449 -170l-156 -205q-59 65 -117.5 94t-130.5 29q-92 0 -154.5 -50t-62.5 -122q0 -44 27 -78 q27 -33 69 -56.5t138 -58.5q127 -45 189.5 -76.5t117.5 -76.5q135 -117 135 -324q0 -226 -148 -366t-386 -140q-167 0 -296.5 72t-232.5 221z" />
<glyph unicode="T" horiz-adv-x="1019" d="M16 1276v260h990v-260h-347v-1276h-299v1276h-344z" />
<glyph unicode="U" horiz-adv-x="1556" d="M162 598v938h299v-879q0 -121 9 -172t40 -104q38 -66 110 -104.5t158 -38.5t159.5 38.5t111.5 104.5q30 52 38.5 102.5t8.5 173.5v879h301v-938q0 -264 -113 -412q-80 -103 -214.5 -162t-291.5 -59t-291.5 59t-212.5 162q-112 146 -112 412z" />
<glyph unicode="V" horiz-adv-x="1507" d="M16 1536h326l410 -1032l415 1032h326l-666 -1575h-159z" />
<glyph unicode="W" horiz-adv-x="2273" d="M16 1536h316l344 -1044l377 1060h164l356 -1060l369 1044h315l-578 -1565h-211l-342 1004l-356 -1004h-211z" />
<glyph unicode="X" horiz-adv-x="1425" d="M16 0l543 811l-459 725h361l270 -477l283 477h360l-473 -725l524 -811h-352l-344 563l-360 -563h-353z" />
<glyph unicode="Y" horiz-adv-x="1368" d="M0 1536h354l332 -532l326 532h356l-539 -831v-705h-301v705z" />
<glyph unicode="Z" horiz-adv-x="1306" d="M31 0l751 1276h-635v260h1129l-748 -1276h709v-260h-1206z" />
<glyph unicode="[" horiz-adv-x="733" d="M184 -287v2091h457v-245h-207v-1600h207v-246h-457z" />
<glyph unicode="\" horiz-adv-x="1038" d="M-135 1776h282l836 -1999h-283z" />
<glyph unicode="]" horiz-adv-x="735" d="M92 -41h209v1600h-209v245h459v-2091h-459v246z" />
<glyph unicode="^" horiz-adv-x="1159" d="M14 770l369 774h393l369 -774h-311l-254 537l-254 -537h-312z" />
<glyph unicode="_" horiz-adv-x="788" d="M164 705v208h461v-208h-461z" />
<glyph unicode="`" horiz-adv-x="718" d="M219 1483l205 129l274 -348l-133 -93z" />
<glyph unicode="a" horiz-adv-x="1306" d="M84 485q0 107 37.5 201.5t102 162t154.5 107t191 39.5q98 0 172 -32q51 -22 82.5 -46t77.5 -77v125h281v-965h-281v125q-9 -11 -22.5 -26t-16.5 -19q-111 -111 -287 -111q-211 0 -351 147.5t-140 368.5zM373 483q0 -113 81.5 -191.5t198.5 -78.5q114 0 196.5 78.5 t82.5 187.5q0 115 -81 194t-200 79q-115 0 -196.5 -79t-81.5 -190z" />
<glyph unicode="b" horiz-adv-x="1308" d="M125 0v1536h281v-696q7 9 45 47q114 108 286 108q207 0 347.5 -146.5t140.5 -363.5q0 -221 -140.5 -368.5t-351.5 -147.5q-87 0 -158 29q-57 22 -90 47t-79 80v-125h-281zM377 483q0 -112 81 -191t197 -79q115 0 198 78.5t83 187.5q0 114 -82 193.5t-199 79.5 q-115 0 -196.5 -79t-81.5 -190z" />
<glyph unicode="c" horiz-adv-x="970" d="M84 479q0 144 72 262.5t198 186t279 67.5q70 0 121 -10q59 -11 133 -47v-266q-60 43 -112.5 61.5t-115.5 18.5q-123 0 -204.5 -77t-81.5 -194t80.5 -192.5t205.5 -75.5q58 0 107 14q35 10 58.5 23t62.5 43v-264q-128 -60 -258 -60q-231 0 -388 147t-157 363z" />
<glyph unicode="d" horiz-adv-x="1306" d="M84 485q0 107 37.5 201.5t102 162t154.5 107t191 39.5q98 0 172 -32q51 -22 82.5 -46t77.5 -77v696h281v-1536h-281v125q-9 -11 -22.5 -26t-16.5 -19q-111 -111 -287 -111q-211 0 -351 147.5t-140 368.5zM373 483q0 -113 81.5 -191.5t198.5 -78.5q114 0 196.5 78.5 t82.5 187.5q0 115 -81 194t-200 79q-115 0 -196.5 -79t-81.5 -190z" />
<glyph unicode="e" horiz-adv-x="1202" d="M84 481q0 235 142 374.5t380 139.5q239 0 375.5 -139t136.5 -383v-35h-747q4 -126 66.5 -192t176.5 -66q80 0 135.5 30t102.5 99l258 -41q-63 -147 -187.5 -223t-301.5 -76q-245 0 -391 139.5t-146 372.5zM381 610h471q-23 94 -84 143.5t-154 49.5q-92 0 -153 -50.5 t-80 -142.5z" />
<glyph unicode="f" horiz-adv-x="679" d="M25 731v234h108v151q0 81 10 130.5t35 94.5q50 88 143.5 141.5t198.5 53.5q44 0 73.5 -6.5t76.5 -26.5v-246q-50 22 -74 28.5t-55 6.5q-36 0 -66 -18.5t-43 -48.5q-20 -47 -20 -148v-112h258v-234h-258v-731h-279v731h-108z" />
<glyph unicode="g" horiz-adv-x="1302" d="M84 471q0 226 138.5 375t350.5 149q86 0 154 -26q56 -22 90 -47.5t80 -81.5v125h281v-914q0 -151 -24 -231.5t-89 -153.5q-150 -170 -422 -170q-302 0 -457 213q-40 55 -54.5 91t-20.5 100h301q47 -174 237 -174q120 0 184 70t64 202v131q-24 -27 -45 -45 q-115 -115 -293 -115q-206 0 -340.5 141.5t-134.5 360.5zM373 483q0 -113 81.5 -191.5t198.5 -78.5q114 0 196.5 78.5t82.5 187.5q0 114 -82 193.5t-199 79.5q-115 0 -196.5 -79t-81.5 -190z" />
<glyph unicode="h" horiz-adv-x="1212" d="M125 0v1536h281v-696q30 39 45 51q96 104 268 104q182 0 289 -116q44 -51 61.5 -110.5t17.5 -162.5v-606h-280v528q0 113 -27 160q-20 35 -64 56.5t-98 21.5q-108 0 -160 -67t-52 -205v-494h-281z" />
<glyph unicode="i" horiz-adv-x="540" d="M102 1386q0 68 49 116t119 48q69 0 118.5 -48.5t49.5 -115.5q0 -66 -49.5 -113.5t-118.5 -47.5t-118.5 47.5t-49.5 113.5zM131 0v965h279v-965h-279z" />
<glyph unicode="j" horiz-adv-x="540" d="M102 1386q0 68 49 116t119 48q69 0 118.5 -48.5t49.5 -115.5q0 -66 -49.5 -113.5t-118.5 -47.5t-118.5 47.5t-49.5 113.5zM131 -514v1479h279v-1479h-279z" />
<glyph unicode="k" horiz-adv-x="1196" d="M125 0v1536h281v-924l372 353h379l-469 -424l504 -541h-383l-373 414l-30 -29v-385h-281z" />
<glyph unicode="l" horiz-adv-x="530" d="M125 0v1536h281v-1536h-281z" />
<glyph unicode="m" horiz-adv-x="1804" d="M125 0v965h281v-111q24 27 38 41q109 100 265 100q104 0 178.5 -42t132.5 -134q118 176 328 176q90 0 164 -36.5t114 -100.5q53 -85 53 -233v-625h-280v528q0 102 -23 152q-39 86 -141 86q-52 0 -95.5 -25.5t-66.5 -68.5q-31 -61 -31 -176v-496h-278v512q0 106 -21 162 q-17 40 -59.5 66t-89.5 26t-91 -24.5t-67 -63.5q-30 -51 -30 -182v-496h-281z" />
<glyph unicode="n" horiz-adv-x="1212" d="M125 0v965h281v-119q41 46 45 49q95 100 268 100q185 0 289 -116q44 -49 61.5 -108t17.5 -159v-612h-280v535q0 110 -27 155q-20 35 -64 55.5t-98 20.5q-108 0 -160 -65.5t-52 -200.5v-500h-281z" />
<glyph unicode="o" horiz-adv-x="1310" d="M84 473q0 233 158 377.5t413 144.5q254 0 413 -142.5t159 -372.5q0 -226 -159 -368q-160 -144 -413 -143q-251 0 -411 141.5t-160 362.5zM373 485q0 -114 82 -193t200 -79q117 0 199 78q84 79 84 193q0 110 -82 188q-84 80 -201 80q-115 0 -198.5 -79t-83.5 -188z" />
<glyph unicode="p" horiz-adv-x="1308" d="M125 -500v1465h281v-125q25 32 40 47q108 108 287 108q138 0 251 -67t177 -185t64 -262q0 -218 -140 -365t-346 -147q-98 0 -172 35q-51 22 -82.5 45.5t-78.5 75.5v-625h-281zM377 483q0 -112 81 -191t197 -79q115 0 198 78.5t83 187.5q0 115 -82 194t-199 79 q-115 0 -196.5 -79t-81.5 -190z" />
<glyph unicode="q" horiz-adv-x="1306" d="M84 481q0 145 63.5 262.5t176.5 184.5t251 67q85 0 156 -26q58 -22 91.5 -47.5t78.5 -81.5v125h281v-1465h-281v625q-36 -40 -43 -47q-55 -52 -131 -80.5t-158 -28.5q-206 0 -345.5 147t-139.5 365zM373 483q0 -113 81.5 -191.5t198.5 -78.5q114 0 196.5 78.5t82.5 187.5 q0 115 -81 194t-200 79q-115 0 -196.5 -79t-81.5 -190z" />
<glyph unicode="r" horiz-adv-x="856" d="M125 0v965h281v-146q28 47 47 69.5t49 45.5q86 61 194 61q56 0 121 -22l-39 -254q-39 21 -64 27t-69 6q-114 0 -178 -70q-34 -37 -47.5 -86t-13.5 -133v-463h-281z" />
<glyph unicode="s" horiz-adv-x="919" d="M61 129l146 166q115 -115 235 -115q55 0 91 30.5t36 76.5q0 41 -29 64t-124 57q-99 35 -128 48t-63 36q-100 66 -100 200q0 135 99.5 221t256.5 86q103 0 189 -28q69 -22 137 -74l-137 -158q-84 64 -166 64q-46 0 -76.5 -23.5t-30.5 -58.5q0 -27 19 -43q17 -17 42.5 -29 t96.5 -37q88 -29 123 -44t72 -40q108 -76 108 -215q0 -151 -117.5 -247.5t-300.5 -96.5q-109 0 -208 42t-171 118z" />
<glyph unicode="t" horiz-adv-x="645" d="M47 731v234h111v327h280v-327h197v-234h-197v-731h-280v731h-111z" />
<glyph unicode="u" horiz-adv-x="1216" d="M125 373v592h281v-547q0 -107 51 -163t151 -56t151.5 56t51.5 163v547h279v-592q0 -194 -125 -299t-357 -105t-357.5 105t-125.5 299z" />
<glyph unicode="v" horiz-adv-x="1150" d="M0 965h313l262 -545l263 545h313l-514 -985h-127z" />
<glyph unicode="w" horiz-adv-x="1818" d="M0 965h313l262 -557l273 581h119l272 -590l268 566h312l-516 -985h-127l-271 587l-266 -587h-129z" />
<glyph unicode="x" horiz-adv-x="1290" d="M0 0l475 524l-385 441h352l207 -250l211 250h354l-393 -441l469 -524h-356l-287 336l-289 -336h-358z" />
<glyph unicode="y" horiz-adv-x="1226" d="M0 965h326l299 -549l284 549h318l-797 -1465h-315l356 645z" />
<glyph unicode="z" horiz-adv-x="1150" d="M47 0l567 735h-479v232h969l-565 -734h528v-233h-1020z" />
<glyph unicode="{" horiz-adv-x="835" d="M184 569v228q73 19 101 59t28 127v440q0 171 64 244.5t213 73.5h4h18h23q2 0 11.5 -1t17.5 -1h22h39l18 -2v-234h-24q-50 0 -76 -6t-43.5 -29t-22 -59.5t-4.5 -105.5v-355q0 -90 -18 -143q-13 -41 -38 -68.5t-81 -62.5q73 -47 105 -97.5t32 -117.5v-428 q0 -114 27.5 -149.5t118.5 -35.5h24v-233q-28 0 -36 -2h-21h-12h-15h-30l-21 -2h-6h-14q-146 0 -210.5 78.5t-64.5 253.5v485q0 106 -129 143z" />
<glyph unicode="|" horiz-adv-x="530" d="M125 0v1536h281v-1536h-281z" />
<glyph unicode="}" horiz-adv-x="835" d="M92 -154h25q95 0 120 36t25 167v354q0 98 19 148q13 38 38.5 64.5t81.5 60.5q-72 46 -105.5 98t-33.5 119v428q0 113 -27.5 147.5t-117.5 34.5h-25v234q6 2 14 2h13h8h20l31 2h58q157 0 221.5 -75t64.5 -255v-485q0 -54 31.5 -89t97.5 -55v-227q-73 -20 -101 -60 t-28 -126v-441q0 -171 -63.5 -245t-210.5 -74h-4h-19l-24 2h-29h-22h-19l-20 2h-19v233z" />
<glyph unicode="~" horiz-adv-x="1536" d="M207 1399q5 9 11 22.5t7 16.5q10 25 29 63q22 53 68 109q86 108 235 108q77 0 238 -59q49 -18 100 -35q53 -18 100 -18q70 0 113 43q17 17 51 73l170 -98q-38 -81 -58.5 -116t-51.5 -70q-45 -56 -114 -88.5t-142 -32.5q-20 0 -52 4q-54 12 -184 59q-15 5 -40.5 14.5 t-40 14t-25.5 6.5q-49 17 -80 17q-36 0 -72 -19q-29 -15 -49 -41q-12 -16 -47 -82z" />
<glyph unicode="&#xa1;" horiz-adv-x="1804" d="M102 782l813 813l316 -321l-328 -273h799v-462h-799l328 -269l-316 -319z" />
<glyph unicode="&#xa2;" horiz-adv-x="8472" d="M164 717q0 180 62 337.5t169 269.5t257.5 176.5t322.5 64.5q135 0 244 -33q77 -22 200 -88l-39 -275q-3 -28 -16 -28t-21 8l-43 31q-49 35 -135 57.5t-168 22.5q-216 0 -359.5 -154.5t-143.5 -386.5q0 -202 115 -322.5t309 -120.5q175 0 337 107q13 8 21 8q12 0 12 -22 q0 -1 -1 -3.5t-1 -3.5l-37 -290q-54 -32 -82.5 -45.5t-76.5 -26.5q-115 -31 -218 -31q-203 0 -365 96t-252.5 267t-90.5 385zM1354 14q0 3 4 15l753 1489q9 18 29 18h252q24 0 29 -29l315 -1476v-11q0 -20 -20 -20h-260q-12 0 -24 8.5t-13 18.5l-45 225h-568l-114 -232 q-9 -20 -31 -20h-287q-20 0 -20 14zM1933 535h385l-112 573zM2894 25v4l182 1480q2 15 8 21t21 6h262q20 0 31 -18l616 -1022l127 1015q3 25 29 25h256q20 0 20 -25v-6l-182 -1480q0 -9 -9 -17t-18 -8h-260q-20 0 -37 25l-616 1005l-125 -1007q0 -10 -7 -16.5t-18 -6.5h-262 q-8 0 -13 7.5t-5 17.5zM4415 14q0 8 5 15l753 1489q8 18 29 18h250q14 0 20.5 -6t9.5 -23l316 -1476v-11q0 -20 -21 -20h-260q-12 0 -24 8.5t-13 18.5l-45 225h-567l-115 -232q-9 -20 -30 -20h-287q-21 0 -21 14zM4995 535h385l-113 573zM5954 31v4l176 1464q1 17 12.5 27 t28.5 10h237q29 0 29 -27l-2 -4l-146 -1220h428q17 0 23 -6.5t6 -24.5v-6l-27 -205q-3 -28 -8.5 -35.5t-25.5 -7.5h-695q-36 0 -36 31zM6752 711v254q0 20 5 24t26 4h569q33 0 33 31v518q0 27 31 27h241q17 0 23 -6t6 -25v-520q0 -25 23 -25h573q27 0 27 -22v-256 q0 -13 -8.5 -22t-22.5 -9h-565q-17 0 -23 -6t-6 -25v-616q0 -37 -29 -37h-241q-27 0 -27 27v626q0 17 -7 24t-24 7h-573q-31 0 -31 27z" />
<glyph unicode="&#xa3;" horiz-adv-x="1325" d="M47 18q43 98 66 138q96 154 268 163q27 72 27 121q0 47 -19 105h-270v209h147q-90 166 -90 311q0 217 162.5 361.5t406.5 144.5q243 0 377.5 -139t139.5 -394l-301 -34q4 39 4 67q0 102 -68 169t-172 67q-107 0 -178.5 -74t-71.5 -184q0 -43 15.5 -102.5t37.5 -104.5 l31 -62l12 -26h344v-209h-276q6 -43 6 -88q0 -81 -27 -158l48 -16q26 -9 62.5 -21t47.5 -16q116 -39 176 -39q98 0 138 123l204 -45q-32 -106 -63 -160q-92 -160 -291 -160q-53 0 -106 12t-162 48q-180 59 -252 59q-60 0 -97.5 -25t-60.5 -79z" />
<glyph unicode="&#xa5;" horiz-adv-x="1357" d="M41 684v260h174q44 183 158 325.5t279 222t354 79.5q197 0 368 -101l-37 -305q-137 117 -321 117q-163 0 -301 -93t-187 -245h783l-31 -260h-776q19 -132 97.5 -230t192.5 -147t248 -49q101 0 189 33l-37 -305q-107 -17 -195 -17q-205 0 -380 92.5t-286 256t-134 366.5 h-158z" />
<glyph unicode="&#xa6;" />
<glyph unicode="&#xa7;" horiz-adv-x="1349" d="M197 680q0 145 70.5 246.5t193.5 132.5q-205 93 -205 311q0 169 114 271t302 102q132 0 237 -50.5t156 -138.5q30 -50 40 -92.5t13 -132.5h-278q-8 91 -49 139t-113 48q-63 0 -108.5 -44.5t-45.5 -107.5t54 -107q44 -37 190 -100q135 -57 191.5 -90t103.5 -82 q104 -107 104 -268q0 -263 -270 -395q209 -93 209 -312q0 -172 -124.5 -286.5t-311.5 -114.5q-201 0 -316.5 113.5t-124.5 322.5h285q2 -92 46.5 -146.5t119.5 -54.5q71 0 119.5 49t48.5 121q0 83 -68 138q-28 21 -61 35t-119 44q-131 45 -189 75.5t-104 80.5 q-110 113 -110 293zM487 688q0 -83 56.5 -142t136.5 -59t136 59t56 142t-56 142t-134 59q-82 0 -138.5 -58t-56.5 -143z" />
<glyph unicode="&#xa8;" horiz-adv-x="1040" d="M115 1348q0 70 48.5 119t117.5 49t117 -48.5t48 -117.5t-48 -117.5t-117 -48.5q-67 0 -116.5 49t-49.5 115zM594 1348q0 70 48.5 119t117.5 49t117.5 -48.5t48.5 -117.5t-49 -117.5t-117 -48.5t-117 49t-49 115z" />
<glyph unicode="&#xa9;" horiz-adv-x="1751" d="M78 768q0 162 63 310.5t169.5 256.5t253 172t306.5 64q221 0 405.5 -107t291 -292t106.5 -406q0 -162 -63 -310t-169.5 -255.5t-253.5 -171.5t-308 -64q-163 0 -311 64t-255.5 171.5t-171 256t-63.5 311.5zM238 768q0 -133 50.5 -255t136.5 -210.5t204 -141t248 -52.5 t247.5 52.5t202.5 141t135.5 210.5t50.5 255q0 177 -84.5 329t-229 241t-312.5 89q-135 0 -255 -51.5t-206.5 -139.5t-137 -210t-50.5 -258zM420 764q0 202 149 343.5t363 141.5q123 0 237 -57l9 -4v-250l-25 25q-57 53 -107.5 75.5t-113.5 22.5q-124 0 -207.5 -85.5 t-83.5 -211.5q0 -124 83.5 -206.5t209.5 -82.5q66 0 116 20.5t103 73.5l25 25v-250q-129 -57 -246 -57q-215 0 -363.5 138t-148.5 339z" />
<glyph unicode="&#xaa;" horiz-adv-x="1804" d="M102 539v462h799l-326 273l314 321l813 -813l-813 -831l-314 319l326 269h-799z" />
<glyph unicode="&#xab;" horiz-adv-x="1130" d="M63 500l361 493l160 -112l-279 -381l283 -371l-164 -117zM516 500l358 493l162 -112l-278 -381l280 -371l-164 -117z" />
<glyph unicode="&#xac;" horiz-adv-x="1153" d="M78 346v268h997v-614h-299v346h-698z" />
<glyph unicode="&#xad;" horiz-adv-x="460" d="M0 367v208h461v-208h-461z" />
<glyph unicode="&#xae;" horiz-adv-x="1751" d="M78 768q0 162 63 310.5t169.5 256.5t253 172t306.5 64q221 0 405.5 -107t291 -292t106.5 -406q0 -162 -63 -310t-169.5 -255.5t-253.5 -171.5t-308 -64q-163 0 -311 64t-255.5 171.5t-171 256t-63.5 311.5zM238 768q0 -133 50.5 -255t136.5 -210.5t204 -141t248 -52.5 t247.5 52.5t202.5 141t135.5 210.5t50.5 255q0 177 -84.5 329t-229 241t-312.5 89q-135 0 -255 -51.5t-206.5 -139.5t-137 -210t-50.5 -258zM543 307v922h291q167 0 259.5 -73.5t92.5 -205.5q0 -101 -52.5 -167.5t-152.5 -94.5l305 -381h-270l-256 359l-2 -359h-215z M758 819h39q168 0 168 121q0 117 -164 117h-43v-238z" />
<glyph unicode="&#xaf;" horiz-adv-x="1077" d="M119 1270v184h839v-184h-839z" />
<glyph unicode="&#xb0;" horiz-adv-x="1382" d="M385 1255q0 131 89 221.5t218 90.5q128 0 217.5 -89.5t89.5 -217.5t-90 -218t-217 -90q-126 0 -216.5 89.5t-90.5 213.5zM539 1262q0 -64 45 -109t108 -45t108.5 44.5t45.5 107.5q0 64 -45.5 108.5t-108.5 44.5t-108 -44t-45 -107z" />
<glyph unicode="&#xb1;" />
<glyph unicode="&#xb2;" />
<glyph unicode="&#xb3;" />
<glyph unicode="&#xb4;" horiz-adv-x="897" d="M406 1264l272 348l207 -129l-344 -312z" />
<glyph unicode="&#xb5;" horiz-adv-x="1849" d="M102 786l832 813l813 -813l-322 -313l-272 326v-799h-463v799l-268 -326z" />
<glyph unicode="&#xb6;" horiz-adv-x="1318" d="M-10 1149q0 387 461 387h774v-260h-170v-1487h-252v1487h-193v-1487h-252v989h-26q-154 0 -248 102.5t-94 268.5z" />
<glyph unicode="&#xb7;" horiz-adv-x="10164" d="M84 -516v2513h9996v-2513h-9996zM524 735q0 -237 104.5 -419.5t294.5 -283t435 -100.5q206 0 325 72q15 9 20 18t9 41l41 283q2 18 2 31q0 18 -6 18t-18 -6q-6 -3 -45 -16q-179 -51 -289 -51q-180 0 -297 121t-117 307q0 201 133.5 327.5t345.5 126.5q90 0 187 -26 t166 -68q43 -29 55 -29q9 0 12.5 7t9.5 38l52 256q6 30 6 37q0 17 -19 31q-100 64 -239.5 101.5t-280.5 37.5q-254 0 -456.5 -109.5t-316.5 -304.5t-114 -440zM1837 14q0 -14 16 -14h398q37 0 49 25l102 211q7 15 15.5 19.5t25.5 4.5h500q12 0 22 -7.5t11 -19.5l53 -213 q7 -20 29 -20h354q18 0 18 18v9l-305 1476q-4 19 -12 26t-23 7h-473q-22 0 -30 -5t-17 -24l-729 -1474q-4 -12 -4 -19zM2564 610q1 3 2 6.5t2 6.5l199 450q7 14 10 14q7 0 10 -20l105 -436q4 -16 4 -19q0 -8 -21 -8h-297q-14 0 -14 6zM3625 20q0 -13 6 -16.5t29 -3.5h342 q30 0 33 29l122 876q4 27 7 27q2 0 16 -21l502 -882q15 -29 49 -29h350q36 0 39 25l205 1482v6q0 13 -6 18t-21 5h-362q-23 0 -30.5 -6t-10.5 -25l-111 -794q-3 -31 -10 -31q-6 0 -19 22l-458 805q-10 20 -18 24.5t-31 4.5h-390q-29 0 -32 -27l-201 -1480v-9zM5298 10 q0 -10 17 -10h393q32 0 43 23l110 215q7 15 14.5 18.5t28.5 3.5h473q24 0 31 -5.5t12 -27.5l39 -198q3 -17 11.5 -23t27.5 -6h351q24 0 24 12q0 15 -2 21l-309 1472q-5 20 -11 25.5t-26 5.5h-451q-21 0 -29.5 -5t-15.5 -22l-725 -1480q-6 -12 -6 -19zM6015 616q0 7 4 19 l201 452q10 19 12 19q4 0 8 -19l99 -448q0 -3 1 -10.5t1 -10.5q0 -14 -23 -14h-276q-27 0 -27 12zM7043 16q0 -16 19 -16h860q27 0 30 25l41 292v9q0 12 -4 16t-16 4h-412q-24 0 -24 23v4l153 1136v9q0 11 -4 14.5t-16 3.5h-387q-12 0 -18 -7t-9 -26l-213 -1476v-11z M8008 633q0 -27 24 -27h545q27 0 27 -31v-550q0 -25 22 -25h420q23 0 23 29v551q0 17 4.5 21.5t21.5 4.5h508q23 0 23 25v418q0 26 -23 26h-514q-12 0 -16 6t-4 23v473q0 20 -27 20h-418q-20 0 -20 -20v-473q0 -29 -25 -29h-549q-22 0 -22 -22v-420z" />
<glyph unicode="&#xb8;" horiz-adv-x="1077" d="M428 -410l227 306l179 -101l-267 -287z" />
<glyph unicode="&#xb9;" />
<glyph unicode="&#xba;" horiz-adv-x="1857" d="M106 813l322 315l272 -327v798h463v-798l269 327l319 -315l-831 -813z" />
<glyph unicode="&#xbb;" horiz-adv-x="1130" d="M92 129l283 371l-279 381l160 112l360 -493l-360 -488zM543 129l282 371l-278 381l162 112l358 -493l-358 -488z" />
<glyph unicode="&#xbc;" />
<glyph unicode="&#xbd;" />
<glyph unicode="&#xbe;" />
<glyph unicode="&#xbf;" horiz-adv-x="1157" d="M113 45q0 195 147 317q45 38 93 60.5t139 48.5v195h282v-398h-90q-119 0 -198.5 -64.5t-79.5 -162.5q0 -75 51 -127.5t123 -52.5q67 0 116 46t49 109v7v8v8l-2 8v6h299v-6v-8v-8q0 -4 2 -8v-23q0 -99 -66 -188.5t-175.5 -144t-229.5 -54.5q-193 0 -326.5 125t-133.5 307z M449 1026q0 76 52 129t126 53q75 0 128.5 -53.5t53.5 -128.5q0 -72 -52.5 -125t-125.5 -53q-78 0 -130 51.5t-52 126.5z" />
<glyph unicode="&#xc0;" horiz-adv-x="1583" d="M16 -4l650 1542h77l-28 68h278l197 -516h-74l451 -1094h-326l-131 328h-633l-141 -328h-320zM571 569h445l-219 555z" />
<glyph unicode="&#xc1;" horiz-adv-x="1568" d="M16 0l664 1569h225l647 -1569h-321l-131 324h-627l-139 -324h-318zM567 567h441l-217 551zM670 1790l315 307l193 -158l-385 -262z" />
<glyph unicode="&#xc2;" horiz-adv-x="1523" d="M-2 2l455 1077h-78l215 510h354l209 -510h-76l445 -1077h-320l-129 322h-622l-138 -322h-315zM545 565h436l-215 547z" />
<glyph unicode="&#xc3;" horiz-adv-x="1568" d="M16 0l664 1569h225l647 -1569h-321l-131 324h-627l-139 -324h-318zM367 1710q20 135 86 213t161 78q68 0 185 -47q49 -19 86 -33q30 -10 57 -10q34 0 54 17t46 69h160q-26 -138 -97.5 -214.5t-172.5 -76.5q-35 0 -66.5 8t-95.5 35q-112 45 -154 45q-32 0 -52.5 -19.5 t-39.5 -64.5h-157zM567 567h441l-217 551z" />
<glyph unicode="&#xc4;" horiz-adv-x="1568" d="M16 0l664 1569h225l647 -1569h-321l-131 324h-627l-139 -324h-318zM375 1870q0 68 48.5 117t117.5 49t117.5 -48.5t48.5 -117.5q0 -70 -48.5 -119t-117.5 -49t-117.5 49.5t-48.5 118.5zM567 567h441l-217 551zM860 1870q0 68 48.5 117t115.5 49q70 0 119 -48.5t49 -117.5 t-48.5 -118.5t-117.5 -49.5t-117.5 49t-48.5 119z" />
<glyph unicode="&#xc5;" horiz-adv-x="1568" d="M16 0l664 1569h225l647 -1569h-321l-131 324h-627l-139 -324h-318zM567 567h441l-217 551zM571 1823q0 91 62 154t151 63t151 -62.5t62 -150.5q0 -89 -62 -152t-151 -63q-88 0 -150.5 62.5t-62.5 148.5zM696 1827q0 -37 25.5 -62.5t62.5 -25.5t62.5 25.5t25.5 62.5 q0 35 -25.5 60.5t-62.5 25.5q-35 0 -61.5 -25.5t-26.5 -60.5z" />
<glyph unicode="&#xc6;" horiz-adv-x="2193" d="M16 0l660 1536h811l102 -260h-565l139 -344h555l105 -260h-555l168 -412h567l98 -260h-876l-131 324h-627l-133 -324h-318zM565 565h436l-210 522z" />
<glyph unicode="&#xc7;" horiz-adv-x="1423" d="M92 758q0 167 64 317t172.5 258t259.5 171t319 63q157 0 320 -66q37 -15 45 -23t8 -28v-270l-2 -25q0 -14 -10 -14q-7 0 -17 10q-67 67 -159 105t-189 38q-140 0 -255.5 -70t-181 -192t-65.5 -270q0 -223 144.5 -373.5t359.5 -150.5q90 0 187 39.5t159 101.5q9 12 17 12 q3 0 6.5 -5t3.5 -11v-25v-276q0 -29 -66.5 -57t-167.5 -40l-18 -4v-120h-248v114l-49 13q-293 73 -465 283.5t-172 494.5z" />
<glyph unicode="&#xc8;" horiz-adv-x="1101" d="M162 0v1536h133l-25 63h584l23 -63h133v-260h-549v-342h530v-260h-530v-414h549v-260h-848z" />
<glyph unicode="&#xc9;" horiz-adv-x="1103" d="M162 0v1536h133l22 63h584l-24 -63h135v-260h-551v-340h530v-260h-530v-416h551v-260h-850z" />
<glyph unicode="&#xca;" horiz-adv-x="1101" d="M162 0v1536h133l22 63h537l23 -63h133v-260h-549v-342h530v-260h-530v-414h549v-260h-848z" />
<glyph unicode="&#xcb;" horiz-adv-x="854" d="M0 -4h852v260h-553v418h532v262h-532v340h553v262h-113v66h-250v-66h-124v66h-246v-66h-119v-1542z" />
<glyph unicode="&#xcc;" horiz-adv-x="632" d="M-35 1939l191 158l317 -307l-125 -113zM162 0v1536h299v-1536h-299z" />
<glyph unicode="&#xcd;" horiz-adv-x="604" d="M154 0v1090h297v-1090h-297zM154 1239v297h297v-297h-297z" />
<glyph unicode="&#xce;" horiz-adv-x="622" d="M39 1475h553l-43 129h-465zM162 -4h299v1415h-299v-1415z" />
<glyph unicode="&#xcf;" horiz-adv-x="448" d="M2 1473h172v129h-172v-129zM78 -6h299v1413h-299v-1413zM283 1473h168v129h-168v-129z" />
<glyph unicode="&#xd0;" />
<glyph unicode="&#xd1;" horiz-adv-x="1765" d="M162 0v1571h207l936 -1069v1034h299v-1567h-207l-936 1069v-1038h-299zM868 1536h275v-313z" />
<glyph unicode="&#xd2;" horiz-adv-x="1826" d="M92 752q0 171 63 323t171.5 260.5t260 172t322.5 63.5q229 0 418.5 -105.5t298.5 -290t109 -407.5q0 -166 -64 -315t-174 -256t-262.5 -169.5t-323.5 -62.5q-168 0 -319.5 62t-261 167t-174 251t-64.5 307zM401 774q0 -147 68 -270.5t186 -194.5t258 -71q139 0 257 71 t186.5 193t68.5 266q0 145 -68.5 267t-187 192.5t-258.5 70.5q-137 0 -254.5 -70.5t-186.5 -191.5t-69 -262zM567 1939l191 158l317 -307l-123 -113z" />
<glyph unicode="&#xd3;" horiz-adv-x="1826" d="M92 752q0 171 63 323t171.5 260.5t260 172t322.5 63.5q229 0 418.5 -105.5t298.5 -290t109 -407.5q0 -166 -64 -315t-174 -256t-262.5 -169.5t-323.5 -62.5q-168 0 -319.5 62t-261 167t-174 251t-64.5 307zM401 774q0 -147 68 -270.5t186 -194.5t258 -71q139 0 257 71 t186.5 193t68.5 266q0 145 -68.5 267t-187 192.5t-258.5 70.5q-137 0 -254.5 -70.5t-186.5 -191.5t-69 -262zM752 1790l315 307l193 -158l-386 -262z" />
<glyph unicode="&#xd4;" horiz-adv-x="1814" d="M92 750q0 228 109 417q115 198 311 301l25 66q168 74 362 74q211 0 387 -78l25 -66h-8q199 -109 309 -291t110 -407q0 -341 -237 -569t-580 -228q-247 0 -448 125q-201 127 -299 350q-66 147 -66 306zM399 772q0 -219 146 -377q143 -155 362 -155q217 0 361 153 q147 156 147 373q0 218 -147 371q-146 155 -363 155q-212 0 -358 -155q-148 -154 -148 -365z" />
<glyph unicode="&#xd5;" horiz-adv-x="1826" d="M92 752q0 171 63 323t171.5 260.5t260 172t322.5 63.5q229 0 418.5 -105.5t298.5 -290t109 -407.5q0 -166 -64 -315t-174 -256t-262.5 -169.5t-323.5 -62.5q-168 0 -319.5 62t-261 167t-174 251t-64.5 307zM401 774q0 -147 68 -270.5t186 -194.5t258 -71q139 0 257 71 t186.5 193t68.5 266q0 145 -68.5 267t-187 192.5t-258.5 70.5q-137 0 -254.5 -70.5t-186.5 -191.5t-69 -262zM496 1710q20 135 86 213t161 78q68 0 185 -47q49 -19 86 -33q30 -10 57 -10q34 0 54 17t46 69h160q-26 -138 -97.5 -214.5t-172.5 -76.5q-35 0 -66.5 8t-95.5 35 q-112 45 -154 45q-32 0 -52.5 -19.5t-39.5 -64.5h-157z" />
<glyph unicode="&#xd6;" horiz-adv-x="1826" d="M92 752q0 171 63 323t171.5 260.5t260 172t322.5 63.5q229 0 418.5 -105.5t298.5 -290t109 -407.5q0 -166 -64 -315t-174 -256t-262.5 -169.5t-323.5 -62.5q-168 0 -319.5 62t-261 167t-174 251t-64.5 307zM401 774q0 -147 68 -270.5t186 -194.5t258 -71q139 0 257 71 t186.5 193t68.5 266q0 145 -68.5 267t-187 192.5t-258.5 70.5q-137 0 -254.5 -70.5t-186.5 -191.5t-69 -262zM489 1868q0 70 48.5 119t117.5 49t117.5 -48.5t48.5 -117.5q0 -68 -48.5 -116t-117.5 -48q-68 0 -117 48t-49 114zM1006 1868q0 70 48 119t117 49t117.5 -48.5 t48.5 -117.5q0 -68 -48.5 -116t-117.5 -48q-67 0 -116 48t-49 114z" />
<glyph unicode="&#xd7;" />
<glyph unicode="&#xd8;" horiz-adv-x="1335" d="M150 0v1536h811v-260h-512v-342h481v-260h-481v-674h-299zM768 152q0 74 53.5 127t128.5 53t127.5 -52.5t52.5 -127.5t-53 -129t-127 -54q-75 0 -128.5 54t-53.5 129z" />
<glyph unicode="&#xd9;" horiz-adv-x="1628" d="M162 606v930h297v-872q0 -168 24 -224q11 -28 25 -51q79 -141 266 -141q186 0 268 141q48 79 48 275v872h77v66h299v-512h-77v-484q0 -266 -113 -409q-171 -220 -502 -220q-335 0 -500 220q-112 144 -112 409z" />
<glyph unicode="&#xda;" horiz-adv-x="1556" d="M162 598v938h299v-879q0 -121 9 -172t40 -104q38 -66 110 -104.5t158 -38.5t159.5 38.5t111.5 104.5q30 52 38.5 102.5t8.5 173.5v879h301v-938q0 -264 -113 -412q-80 -103 -214.5 -162t-291.5 -59t-291.5 59t-212.5 162q-112 146 -112 412zM616 1790l318 307l190 -158 l-383 -262z" />
<glyph unicode="&#xdb;" horiz-adv-x="1548" d="M162 592v794h293v-737q0 -169 24 -221q11 -28 25 -51q80 -139 264 -139q180 0 266 139q45 74 45 272v737h297v-794q0 -263 -110 -406q-169 -217 -498 -217q-294 0 -450 163t-156 460zM442 1450h639l-41 127h-555z" />
<glyph unicode="&#xdc;" horiz-adv-x="1589" d="M162 610v762h305l2 -700q0 -174 25 -232q5 -11 10.5 -22.5t8.5 -19t5 -11.5q83 -145 275 -145q189 0 278 145q47 83 47 285v700h309v-762q0 -273 -116 -422q-173 -225 -518 -225q-305 0 -468 169.5t-163 477.5zM162 1438v133h307v-133h-307zM1118 1438v133h309v-133h-309 z" />
<glyph unicode="&#xdd;" />
<glyph unicode="&#xde;" />
<glyph unicode="&#xdf;" horiz-adv-x="1300" d="M125 0v1255q0 230 113 355q62 66 161.5 104.5t214.5 38.5q214 0 347 -124.5t133 -323.5q0 -104 -44.5 -181.5t-144.5 -146.5q70 -31 104.5 -52.5t71.5 -58.5q65 -63 100.5 -155.5t35.5 -196.5q0 -120 -46.5 -229t-128.5 -181q-152 -137 -432 -137h-26v252q158 4 251 88.5 t93 222.5q0 80 -39.5 149t-106.5 107q-45 27 -84 37.5t-114 14.5v239q115 4 177 61t62 158q0 91 -58.5 148t-150.5 57q-67 0 -117 -32.5t-69 -88.5q-13 -42 -17.5 -90t-4.5 -153v-1137h-281z" />
<glyph unicode="&#xe0;" horiz-adv-x="1306" d="M84 485q0 107 37.5 201.5t102 162t154.5 107t191 39.5q98 0 172 -32q51 -22 82.5 -46t77.5 -77v125h281v-965h-281v125q-9 -11 -22.5 -26t-16.5 -19q-111 -111 -287 -111q-211 0 -351 147.5t-140 368.5zM190 1434l203 125l275 -336l-133 -88zM373 483q0 -113 81.5 -191.5 t198.5 -78.5q114 0 196.5 78.5t82.5 187.5q0 115 -81 194t-200 79q-115 0 -196.5 -79t-81.5 -190z" />
<glyph unicode="&#xe1;" horiz-adv-x="1306" d="M84 485q0 107 37.5 201.5t102 162t154.5 107t191 39.5q98 0 172 -32q51 -22 82.5 -46t77.5 -77v125h281v-965h-281v125q-9 -11 -22.5 -26t-16.5 -19q-111 -111 -287 -111q-211 0 -351 147.5t-140 368.5zM373 483q0 -113 81.5 -191.5t198.5 -78.5q114 0 196.5 78.5 t82.5 187.5q0 115 -81 194t-200 79q-115 0 -196.5 -79t-81.5 -190zM543 1223l274 336l205 -125l-346 -299z" />
<glyph unicode="&#xe2;" horiz-adv-x="1306" d="M84 485q0 107 37.5 201.5t102 162t154.5 107t191 39.5q98 0 172 -32q51 -22 82.5 -46t77.5 -77v125h281v-965h-281v125q-9 -11 -22.5 -26t-16.5 -19q-111 -111 -287 -111q-211 0 -351 147.5t-140 368.5zM266 1266l391 309l396 -309l-144 -131l-252 202l-251 -202z M373 483q0 -113 81.5 -191.5t198.5 -78.5q114 0 196.5 78.5t82.5 187.5q0 115 -81 194t-200 79q-115 0 -196.5 -79t-81.5 -190z" />
<glyph unicode="&#xe3;" horiz-adv-x="1306" d="M84 485q0 107 37.5 201.5t102 162t154.5 107t191 39.5q98 0 172 -32q51 -22 82.5 -46t77.5 -77v125h281v-965h-281v125q-9 -11 -22.5 -26t-16.5 -19q-111 -111 -287 -111q-211 0 -351 147.5t-140 368.5zM242 1163q20 131 86 206t161 75q69 0 185 -45q16 -5 35.5 -13 t31.5 -12.5t19 -5.5q25 -10 59 -10t53.5 16.5t47.5 67.5h157q-25 -132 -97 -207.5t-173 -75.5q-59 0 -162 41q-114 43 -153 43q-32 0 -53 -18.5t-40 -61.5h-157zM373 483q0 -113 81.5 -191.5t198.5 -78.5q114 0 196.5 78.5t82.5 187.5q0 115 -81 194t-200 79 q-115 0 -196.5 -79t-81.5 -190z" />
<glyph unicode="&#xe4;" horiz-adv-x="1306" d="M84 485q0 107 37.5 201.5t102 162t154.5 107t191 39.5q98 0 172 -32q51 -22 82.5 -46t77.5 -77v125h281v-965h-281v125q-9 -11 -22.5 -26t-16.5 -19q-111 -111 -287 -111q-211 0 -351 147.5t-140 368.5zM256 1303q0 68 48 114.5t118 46.5q68 0 116 -46.5t48 -112.5 t-48.5 -113t-117.5 -47q-67 0 -115.5 46.5t-48.5 111.5zM373 483q0 -113 81.5 -191.5t198.5 -78.5q114 0 196.5 78.5t82.5 187.5q0 115 -81 194t-200 79q-115 0 -196.5 -79t-81.5 -190zM733 1303q0 67 48.5 114t117.5 47t117.5 -46.5t48.5 -112.5t-48.5 -113t-117.5 -47 q-68 0 -117 47t-49 111z" />
<glyph unicode="&#xe5;" horiz-adv-x="1306" d="M84 485q0 107 37.5 201.5t102 162t154.5 107t191 39.5q98 0 172 -32q51 -22 82.5 -46t77.5 -77v125h281v-965h-281v125q-9 -11 -22.5 -26t-16.5 -19q-111 -111 -287 -111q-211 0 -351 147.5t-140 368.5zM373 483q0 -113 81.5 -191.5t198.5 -78.5q114 0 196.5 78.5 t82.5 187.5q0 115 -81 194t-200 79q-115 0 -196.5 -79t-81.5 -190zM375 1331q0 85 60.5 143t148.5 58q86 0 146.5 -58t60.5 -141t-60.5 -140.5t-146.5 -57.5q-85 0 -147 58.5t-62 137.5zM502 1335q0 -34 24 -57t58 -23t57 23t23 55t-23 55t-57 23t-58 -22.5t-24 -53.5z" />
<glyph unicode="&#xe6;" horiz-adv-x="1867" d="M84 285q0 145 109.5 232t291.5 87q84 0 147 -15t130 -52q2 18 2 47q0 97 -65.5 148.5t-188.5 51.5q-142 0 -272 -41v218q151 34 282 34q167 0 271 -61q33 -18 53 -39t49 -64q132 164 377 164q239 0 376.5 -139.5t137.5 -382.5v-35h-752q6 -122 74 -191t182 -69 q158 0 225 133l261 -41q-26 -61 -47.5 -92.5t-61.5 -68.5q-69 -66 -170.5 -103t-212.5 -37q-258 0 -389 183q-143 -183 -399 -183q-183 0 -296.5 87.5t-113.5 228.5zM354 295q0 -58 55 -95.5t140 -37.5q89 0 151 39t62 96q0 51 -59 83t-154 32q-89 0 -142 -31.5t-53 -85.5z M1042 610h471q-25 98 -82.5 145.5t-152.5 47.5q-93 0 -150.5 -47t-85.5 -146z" />
<glyph unicode="&#xe7;" horiz-adv-x="1030" d="M84 477q0 144 72 263t198 187t279 68q70 0 121 -10q61 -11 133 -47v-266q-59 49 -111.5 69.5t-116.5 20.5q-123 0 -204.5 -80.5t-81.5 -200.5q0 -121 80.5 -199.5t205.5 -78.5q63 0 107 16q35 12 58.5 26.5t62.5 47.5v-264q-37 -18 -59 -25.5t-101 -28.5v-81h-240v86 l-22 8l-27 10q-167 65 -260.5 191t-93.5 288z" />
<glyph unicode="&#xe8;" horiz-adv-x="1202" d="M84 481q0 235 142 374.5t380 139.5q239 0 375.5 -139t136.5 -383v-35h-747q4 -126 66.5 -192t176.5 -66q80 0 135.5 30t102.5 99l258 -41q-63 -147 -187.5 -223t-301.5 -76q-245 0 -391 139.5t-146 372.5zM240 1434l202 125l275 -336l-131 -88zM381 610h471 q-23 94 -84 143.5t-154 49.5q-92 0 -153 -50.5t-80 -142.5z" />
<glyph unicode="&#xe9;" horiz-adv-x="1202" d="M84 481q0 235 142 374.5t380 139.5q239 0 375.5 -139t136.5 -383v-35h-747q4 -126 66.5 -192t176.5 -66q80 0 135.5 30t102.5 99l258 -41q-63 -147 -187.5 -223t-301.5 -76q-245 0 -391 139.5t-146 372.5zM381 610h471q-23 94 -84 143.5t-154 49.5q-92 0 -153 -50.5 t-80 -142.5zM485 1223l275 336l203 -125l-345 -299z" />
<glyph unicode="&#xea;" horiz-adv-x="1202" d="M84 481q0 235 142 374.5t380 139.5q239 0 375.5 -139t136.5 -383v-35h-747q4 -126 66.5 -192t176.5 -66q80 0 135.5 30t102.5 99l258 -41q-63 -147 -187.5 -223t-301.5 -76q-245 0 -391 139.5t-146 372.5zM209 1266l389 309l397 -309l-143 -131l-254 202l-250 -202z M381 610h471q-23 94 -84 143.5t-154 49.5q-92 0 -153 -50.5t-80 -142.5z" />
<glyph unicode="&#xeb;" horiz-adv-x="1202" d="M84 481q0 235 142 374.5t380 139.5q239 0 375.5 -139t136.5 -383v-35h-747q4 -126 66.5 -192t176.5 -66q80 0 135.5 30t102.5 99l258 -41q-63 -147 -187.5 -223t-301.5 -76q-245 0 -391 139.5t-146 372.5zM197 1303q0 67 48 114t117 47q68 0 116 -46.5t48 -112.5 t-48 -113t-116 -47q-67 0 -116 46.5t-49 111.5zM381 610h471q-23 94 -84 143.5t-154 49.5q-92 0 -153 -50.5t-80 -142.5zM674 1303q0 68 49 114.5t119 46.5q68 0 116 -46.5t48 -112.5t-48.5 -113t-117.5 -47q-68 0 -117 47t-49 111z" />
<glyph unicode="&#xec;" horiz-adv-x="583" d="M-45 1434l205 125l274 -336l-133 -88zM178 0v967h279v-967h-279z" />
<glyph unicode="&#xed;" horiz-adv-x="583" d="M125 0v967h281v-967h-281zM150 1223l274 336l203 -125l-344 -299z" />
<glyph unicode="&#xee;" horiz-adv-x="653" d="M-68 1266l392 309l395 -309l-144 -131l-251 202l-252 -202zM186 0v967h281v-967h-281z" />
<glyph unicode="&#xef;" horiz-adv-x="493" d="M-127 1303q0 67 48.5 114t117.5 47t117.5 -46.5t48.5 -112.5t-48.5 -113t-117.5 -47q-68 0 -117 47t-49 111zM106 0v967h281v-967h-281zM291 1303q0 67 48.5 114t117.5 47t117.5 -46.5t48.5 -112.5t-48.5 -113t-117.5 -47q-68 0 -117 47t-49 111z" />
<glyph unicode="&#xf0;" />
<glyph unicode="&#xf1;" horiz-adv-x="1212" d="M125 0v965h281v-119q41 46 45 49q95 100 268 100q185 0 289 -116q44 -49 61.5 -108t17.5 -159v-612h-280v535q0 110 -27 155q-20 35 -64 55.5t-98 20.5q-108 0 -160 -65.5t-52 -200.5v-500h-281zM188 1163q20 131 86.5 206t161.5 75q69 0 185 -45q16 -5 35.5 -13 t31.5 -12.5t19 -5.5q25 -10 59 -10t53 16.5t47 67.5h158q-26 -134 -97.5 -208.5t-172.5 -74.5q-59 0 -162 41q-114 43 -154 43q-32 0 -53.5 -18.5t-38.5 -61.5h-158z" />
<glyph unicode="&#xf2;" horiz-adv-x="1310" d="M84 473q0 233 158 377.5t413 144.5q254 0 413 -142.5t159 -369.5q1 -227 -159 -370.5t-413 -143.5q-251 0 -411 141.5t-160 362.5zM293 1434l205 125l274 -336l-133 -88zM373 485q0 -114 82 -193t200 -79q117 0 199.5 78t83.5 190t-82.5 191.5t-200.5 79.5 q-115 0 -198.5 -79t-83.5 -188z" />
<glyph unicode="&#xf3;" horiz-adv-x="1310" d="M84 473q0 233 158 377.5t413 144.5q254 0 413 -142.5t159 -369.5q1 -227 -159 -370.5t-413 -143.5q-251 0 -411 141.5t-160 362.5zM373 485q0 -114 82 -193t200 -79q117 0 199.5 78t83.5 190t-82.5 191.5t-200.5 79.5q-115 0 -198.5 -79t-83.5 -188zM539 1223l274 336 l205 -125l-346 -299z" />
<glyph unicode="&#xf4;" horiz-adv-x="1310" d="M84 473q0 233 158 377.5t413 144.5q254 0 413 -142.5t159 -369.5q1 -227 -159 -370.5t-413 -143.5q-251 0 -411 141.5t-160 362.5zM262 1266l391 309l396 -309l-144 -131l-252 202l-252 -202zM373 485q0 -114 82 -193t200 -79q117 0 199.5 78t83.5 190t-82.5 191.5 t-200.5 79.5q-115 0 -198.5 -79t-83.5 -188z" />
<glyph unicode="&#xf5;" horiz-adv-x="1310" d="M84 473q0 233 158 377.5t413 144.5q254 0 413 -142.5t159 -369.5q1 -227 -159 -370.5t-413 -143.5q-251 0 -411 141.5t-160 362.5zM238 1163q19 129 85.5 205t161.5 76q66 0 185 -45q16 -5 35.5 -13t31.5 -12.5t19 -5.5q30 -10 57 -10q34 0 54 16.5t46 67.5h160 q-26 -134 -97.5 -208.5t-172.5 -74.5q-35 0 -66.5 7.5t-95.5 33.5q-114 43 -154 43q-32 0 -53.5 -18.5t-38.5 -61.5h-157zM373 485q0 -114 82 -193t200 -79q117 0 199.5 78t83.5 190t-82.5 191.5t-200.5 79.5q-115 0 -198.5 -79t-83.5 -188z" />
<glyph unicode="&#xf6;" horiz-adv-x="1310" d="M84 473q0 233 158 377.5t413 144.5q254 0 413 -142.5t159 -369.5q1 -227 -159 -370.5t-413 -143.5q-251 0 -411 141.5t-160 362.5zM250 1303q0 67 48.5 114t117.5 47t117.5 -46.5t48.5 -112.5t-48.5 -113t-117.5 -47q-68 0 -117 47t-49 111zM373 485q0 -114 82 -193 t200 -79q117 0 199.5 78t83.5 190t-82.5 191.5t-200.5 79.5q-115 0 -198.5 -79t-83.5 -188zM729 1303q0 67 48.5 114t117.5 47t117.5 -46.5t48.5 -112.5t-49.5 -113t-118.5 -47q-66 0 -115 47t-49 111z" />
<glyph unicode="&#xf7;" horiz-adv-x="1865" d="M205 684v309h1456v-309h-1456zM752 1405q0 75 53 128.5t129 53.5q74 0 127 -53.5t53 -126.5q0 -75 -53.5 -127.5t-128.5 -52.5q-74 0 -127 52.5t-53 125.5zM756 281q0 75 53 128.5t129 53.5q74 0 127 -52.5t53 -127.5t-53.5 -128t-128.5 -53q-74 0 -127 53t-53 126z" />
<glyph unicode="&#xf8;" horiz-adv-x="3377" d="M162 0v1536h235l908 -1034v1034h299v-1536h-234l-909 1038v-1038h-299zM1708 498q0 233 158 381.5t407 148.5q255 0 412.5 -146t159.5 -382q0 -235 -159 -384t-411 -149q-250 0 -408.5 148.5t-158.5 382.5zM1995 498q0 -116 82.5 -198.5t199.5 -82.5t199 82t82 199 q0 116 -82 198t-197 82q-119 0 -201.5 -81.5t-82.5 -198.5zM2853 152q0 75 53 127.5t127 52.5q75 0 127.5 -52.5t52.5 -127.5t-52.5 -129t-125.5 -54q-75 0 -128.5 54t-53.5 129z" />
<glyph unicode="&#xf9;" horiz-adv-x="1216" d="M125 373v592h281v-547q0 -107 51 -163t151 -56t151.5 56t51.5 163v547h279v-592q0 -194 -125 -299t-357 -105t-357.5 105t-125.5 299zM246 1434l205 125l274 -336l-133 -88z" />
<glyph unicode="&#xfa;" horiz-adv-x="1216" d="M125 373v592h281v-547q0 -107 51 -163t151 -56t151.5 56t51.5 163v547h279v-592q0 -194 -125 -299t-357 -105t-357.5 105t-125.5 299zM492 1223l274 336l205 -125l-346 -299z" />
<glyph unicode="&#xfb;" horiz-adv-x="1216" d="M125 373v592h281v-547q0 -107 51 -163t151 -56t151.5 56t51.5 163v547h279v-592q0 -194 -125 -299t-357 -105t-357.5 105t-125.5 299zM215 1266l391 309l395 -309l-143 -131l-252 202l-252 -202z" />
<glyph unicode="&#xfc;" horiz-adv-x="1216" d="M125 373v592h281v-547q0 -107 51 -163t151 -56t151.5 56t51.5 163v547h279v-592q0 -194 -125 -299t-357 -105t-357.5 105t-125.5 299zM203 1303q0 67 48.5 114t117.5 47t117.5 -46.5t48.5 -112.5t-48.5 -113t-117.5 -47q-68 0 -117 47t-49 111zM682 1303q0 67 48.5 114 t117.5 47t117.5 -46.5t48.5 -112.5t-49 -113t-117 -47t-117 47t-49 111z" />
<glyph unicode="&#xfd;" />
<glyph unicode="&#xfe;" />
<glyph unicode="&#xff;" horiz-adv-x="1226" d="M0 999h326l299 -569l284 569h318l-805 -1534h-316l365 687zM209 1348q0 70 48.5 119t117.5 49t117.5 -48.5t48.5 -117.5t-48.5 -117.5t-117.5 -48.5q-67 0 -116.5 49t-49.5 115zM688 1348q0 70 48.5 119t117.5 49t117.5 -48.5t48.5 -117.5t-49 -117.5t-117 -48.5t-117 49 t-49 115z" />
<glyph unicode="&#x152;" horiz-adv-x="2357" d="M92 768q0 219 108 403.5t294 292t407 107.5q145 0 275 -51q70 -27 121 -61.5t135 -108.5v186h833v-260h-539v-344h517v-260h-517v-412h539v-260h-833v182q-76 -70 -124.5 -103t-115.5 -61q-130 -53 -287 -53q-226 0 -412.5 105.5t-293.5 290t-107 407.5zM399 764 q0 -144 65.5 -264.5t179 -190t249.5 -69.5q140 0 257.5 69.5t185 190t67.5 264.5q0 143 -68.5 265t-186 193.5t-255.5 71.5q-136 0 -249.5 -70t-179 -192t-65.5 -268z" />
<glyph unicode="&#x153;" horiz-adv-x="2045" d="M84 481q0 223 158 368.5t399 145.5q255 0 416 -176q69 91 163.5 133.5t225.5 42.5q248 0 381 -141t133 -403v-13h-758q9 -123 75.5 -191.5t178.5 -68.5q155 0 232 133l260 -41q-62 -148 -188.5 -224.5t-309.5 -76.5q-255 0 -393 187q-64 -68 -111 -103q-127 -84 -311 -84 q-240 0 -395.5 144t-155.5 368zM373 487q0 -117 78 -195.5t192 -78.5q115 0 193.5 78.5t78.5 193.5q0 114 -77.5 190.5t-192.5 76.5q-114 0 -193 -76.5t-79 -188.5zM1212 610h478q-49 193 -238 193q-185 0 -240 -193z" />
<glyph unicode="&#x178;" horiz-adv-x="1312" d="M-29 1536h355l331 -532l326 532h356l-538 -831v-705h-301v705zM233 1868q0 70 48.5 119t117.5 49t117.5 -48.5t48.5 -117.5q0 -67 -49.5 -115.5t-118.5 -48.5q-66 0 -115 48t-49 114zM750 1868q0 70 48 119t117 49t117.5 -48.5t48.5 -117.5q0 -67 -49.5 -115.5 t-118.5 -48.5q-66 0 -114.5 48t-48.5 114z" />
<glyph unicode="&#x2c6;" horiz-adv-x="1030" d="M123 1311l389 319l397 -319l-143 -137l-254 210l-250 -210z" />
<glyph unicode="&#x2dc;" horiz-adv-x="1167" d="M166 1204q20 135 86.5 213t161.5 78q67 0 184 -47q49 -19 86 -33q30 -10 57 -10q34 0 54.5 17t46.5 69h159q-26 -138 -97.5 -214.5t-172.5 -76.5q-35 0 -66.5 8t-95.5 35q-112 45 -153 45q-32 0 -52.5 -19.5t-39.5 -64.5h-158z" />
<glyph unicode="&#x2000;" horiz-adv-x="1048" />
<glyph unicode="&#x2001;" horiz-adv-x="2097" />
<glyph unicode="&#x2002;" horiz-adv-x="1048" />
<glyph unicode="&#x2003;" horiz-adv-x="2097" />
<glyph unicode="&#x2004;" horiz-adv-x="699" />
<glyph unicode="&#x2005;" horiz-adv-x="524" />
<glyph unicode="&#x2006;" horiz-adv-x="349" />
<glyph unicode="&#x2007;" horiz-adv-x="349" />
<glyph unicode="&#x2008;" horiz-adv-x="262" />
<glyph unicode="&#x2009;" horiz-adv-x="419" />
<glyph unicode="&#x200a;" horiz-adv-x="116" />
<glyph unicode="&#x2010;" horiz-adv-x="460" d="M0 367v208h461v-208h-461z" />
<glyph unicode="&#x2011;" horiz-adv-x="460" d="M0 367v208h461v-208h-461z" />
<glyph unicode="&#x2012;" horiz-adv-x="460" d="M0 367v208h461v-208h-461z" />
<glyph unicode="&#x2013;" horiz-adv-x="1249" d="M145 412v231h959v-231h-959z" />
<glyph unicode="&#x2014;" horiz-adv-x="2412" d="M477 684v309h1456v-309h-1456z" />
<glyph unicode="&#x2018;" horiz-adv-x="505" d="M125 1536h256l-27 -621h-176z" />
<glyph unicode="&#x2019;" horiz-adv-x="507" d="M125 1536h258l-25 -621h-178z" />
<glyph unicode="&#x201a;" horiz-adv-x="686" d="M78 -301l246 618l254 -30l-324 -609z" />
<glyph unicode="&#x201c;" horiz-adv-x="940" d="M125 1536h258l-25 -621h-178zM561 1536h254l-24 -621h-179z" />
<glyph unicode="&#x201d;" horiz-adv-x="940" d="M125 1536h258l-25 -621h-178zM561 1536h254l-24 -621h-179z" />
<glyph unicode="&#x201e;" />
<glyph unicode="&#x2022;" horiz-adv-x="1536" d="M451 784q0 131 93 226.5t222 95.5q133 0 226 -94.5t93 -229.5q0 -132 -93.5 -226.5t-223.5 -94.5q-131 0 -224 95t-93 228z" />
<glyph unicode="&#x2026;" horiz-adv-x="1888" d="M111 145q0 76 53.5 130.5t128.5 54.5q73 0 126.5 -53t53.5 -127q0 -75 -53 -129t-127 -54t-128 53t-54 125zM762 145q0 76 53.5 130.5t128.5 54.5q74 0 127 -53t53 -127q0 -75 -53 -129t-127 -54t-128 53t-54 125zM1415 145q0 77 52.5 131t127.5 54t128 -53t53 -127 q0 -75 -53 -129t-128 -54q-73 0 -126.5 53t-53.5 125z" />
<glyph unicode="&#x202f;" horiz-adv-x="419" />
<glyph unicode="&#x2039;" horiz-adv-x="679" d="M63 500l361 493l162 -112l-281 -381l283 -371l-164 -117z" />
<glyph unicode="&#x203a;" horiz-adv-x="679" d="M92 129l283 371l-279 381l160 112l360 -493l-360 -488z" />
<glyph unicode="&#x205f;" horiz-adv-x="524" />
<glyph unicode="&#x20ac;" horiz-adv-x="1357" d="M41 684v260h174q44 183 158 325.5t279 222t354 79.5q197 0 368 -101l-37 -305q-137 117 -321 117q-163 0 -301 -93t-187 -245h783l-31 -260h-776q19 -132 97.5 -230t192.5 -147t248 -49q101 0 189 33l-37 -305q-107 -17 -195 -17q-205 0 -380 92.5t-286 256t-134 366.5 h-158z" />
<glyph unicode="&#x2122;" horiz-adv-x="1675" d="M0 1362v174h575v-174h-190v-700h-195v700h-190zM606 662l158 890h141l217 -532l224 532h145l139 -890h-196l-68 481l-209 -494h-76l-202 494l-76 -481h-197z" />
<glyph unicode="&#xe000;" horiz-adv-x="962" d="M0 0v963h963v-963h-963z" />
<glyph unicode="&#xfb01;" horiz-adv-x="5179" d="M0 -508v2511h4465v-2511h-4465zM199 154q55 -40 89 -58t97 -43q172 -78 344 -78q184 0 329 73t212 196q22 50 36.5 128.5t14.5 151.5q0 89 -22 152t-74 121q-46 50 -108 82t-171 65q-29 11 -57 20.5t-49.5 16t-28.5 8.5q-70 23 -100 53q-35 30 -35 78q0 56 47.5 93.5 t120.5 37.5q134 0 258 -106l158 313q-227 121 -482 121q-232 0 -375 -141.5t-143 -368.5q0 -251 178 -344q71 -37 236 -84q97 -30 134.5 -47.5t68.5 -48.5q30 -27 30 -80q0 -69 -51.5 -110.5t-138.5 -41.5q-175 0 -352 160zM1431 12.5q2 -4.5 7 -4.5h395q3 0 8 4.5t6 10.5 l97 243q3 6 18 6h524q12 0 15 -6l90 -243q11 -15 20 -15h395q11 0 11 15l-572 1505q-3 10 -14 10h-408q-15 0 -18 -10l-573 -1505q-3 -6 -1 -10.5zM2062 588q0 -8 11 -8h305q9 0 6 8l-156 459q-2 9 -4 9t-2 -9zM3019 1200h321v-1192h398v1192h327v334h-1046v-334z" />
<glyph unicode="&#xfb02;" horiz-adv-x="5179" d="M0 -508v2511h4465v-2511h-4465zM199 154q55 -40 89 -58t97 -43q172 -78 344 -78q184 0 329 73t212 196q22 50 36.5 128.5t14.5 151.5q0 89 -22 152t-74 121q-46 50 -108 82t-171 65q-29 11 -57 20.5t-49.5 16t-28.5 8.5q-70 23 -100 53q-35 30 -35 78q0 56 47.5 93.5 t120.5 37.5q134 0 258 -106l158 313q-227 121 -482 121q-232 0 -375 -141.5t-143 -368.5q0 -251 178 -344q71 -37 236 -84q97 -30 134.5 -47.5t68.5 -48.5q30 -27 30 -80q0 -69 -51.5 -110.5t-138.5 -41.5q-175 0 -352 160zM1431 12.5q2 -4.5 7 -4.5h395q3 0 8 4.5t6 10.5 l97 243q3 6 18 6h524q12 0 15 -6l90 -243q11 -15 20 -15h395q11 0 11 15l-572 1505q-3 10 -14 10h-408q-15 0 -18 -10l-573 -1505q-3 -6 -1 -10.5zM2062 588q0 -8 11 -8h305q9 0 6 8l-156 459q-2 9 -4 9t-2 -9zM3019 1200h321v-1192h398v1192h327v334h-1046v-334z" />
</font>
</defs>
</svg>
